<svg xmlns="http://www.w3.org/2000/svg" width="48" height="48"><path fill-rule="evenodd" d="M24 0A24 24 0 0 0 0 24a24 24 0 0 0 24 24 24 24 0 0 0 24-24A24 24 0 0 0 24 0zm1 12c1.376 0 2.5 1.124 2.5 2.5a2.506 2.506 0 0 1-1.998 2.447H25.5V19h7a.5.5 0 0 1 .5.5v2.55a2.51 2.51 0 0 1 2 2.45 2.506 2.506 0 0 1-2.002 2.447V29H35.5a.5.5 0 0 1 .5.5v2.55a2.51 2.51 0 0 1 2 2.45c0 1.376-1.124 2.5-2.5 2.5a2.506 2.506 0 0 1-2.5-2.5c0-1.204.861-2.215 1.998-2.45H35V30h-2.502a.5.5 0 0 1-.5-.5v-2.553A2.506 2.506 0 0 1 30 24.5c0-1.204.861-2.215 1.998-2.45H32V20H18v2.05a2.51 2.51 0 0 1 2 2.45 2.506 2.506 0 0 1-1.998 2.447H18V29h4.5a.5.5 0 0 1 .5.5v2.55c1.138.234 2 1.245 2 2.45 0 1.376-1.124 2.5-2.5 2.5a2.506 2.506 0 0 1-2.5-2.5c0-1.205.862-2.216 2-2.45V30h-9v2.05c1.138.234 2 1.245 2 2.45 0 1.376-1.124 2.5-2.5 2.5a2.506 2.506 0 0 1-2.5-2.5c0-1.205.862-2.216 2-2.45V29.5a.5.5 0 0 1 .5-.5H17v-2.053a2.508 2.508 0 0 1-2-2.447c0-1.204.86-2.215 1.998-2.45H17V19.5a.5.5 0 0 1 .5-.5h7v-2.053a2.508 2.508 0 0 1-2-2.447c0-1.376 1.124-2.5 2.5-2.5zm0 1c-.84 0-1.5.66-1.5 1.5 0 .812.62 1.45 1.42 1.492a.5.5 0 0 1 .072-.01.5.5 0 0 1 .084.01A1.481 1.481 0 0 0 26.5 14.5c0-.84-.66-1.5-1.5-1.5zm-7.543 10.004A1.483 1.483 0 0 0 16 24.5c0 .812.62 1.45 1.42 1.492a.5.5 0 0 1 .072-.01.5.5 0 0 1 .084.01A1.481 1.481 0 0 0 19 24.5c0-.827-.642-1.476-1.463-1.496a.5.5 0 0 1-.078 0h-.002zm15 0A1.483 1.483 0 0 0 31 24.5c0 .824.638 1.472 1.455 1.496a.5.5 0 0 1 .035 0 .5.5 0 0 1 .057 0A1.483 1.483 0 0 0 34 24.5c0-.827-.642-1.476-1.463-1.496a.5.5 0 0 1-.078 0h-.002zm-20 10A1.483 1.483 0 0 0 11 34.5c0 .84.66 1.5 1.5 1.5s1.5-.66 1.5-1.5c0-.827-.642-1.476-1.463-1.496a.5.5 0 0 1-.078 0h-.002zm10 0A1.483 1.483 0 0 0 21 34.5c0 .84.66 1.5 1.5 1.5s1.5-.66 1.5-1.5c0-.827-.642-1.476-1.463-1.496a.5.5 0 0 1-.078 0h-.002zm13 0A1.483 1.483 0 0 0 34 34.5c0 .84.66 1.5 1.5 1.5s1.5-.66 1.5-1.5c0-.827-.642-1.476-1.463-1.496a.5.5 0 0 1-.078 0h-.002z"/></svg>