<svg xmlns="http://www.w3.org/2000/svg" enable-background="new 0 0 50 50" viewBox="0 0 50 50"><path d="M19.1 10C19.1 6.7 21.7 4 25 4c1.6 0 3.1.6 4.2 1.7 1.1 1.1 1.7 2.6 1.7 4.2v3.9h2V10c0-2.1-.8-4.1-2.3-5.6C29.1 2.8 27.1 2 25 2c-4.4 0-7.9 3.6-7.9 7.9v3.9h2V10zM48.7 28c0 2.5-2 4.5-4.5 4.5-2.1 0-3.9-1.5-4.4-3.5H39v-2h.8c.5-2 2.3-3.5 4.4-3.5C46.7 23.5 48.7 25.6 48.7 28zM22 44.5c0 2.5-2 4.5-4.5 4.5S13 47 13 44.5c0-2.2 1.5-3.9 3.5-4.4v-2.6h2v2.6C20.5 40.6 22 42.3 22 44.5zM11 19.8v2h-.8c-.4 2-2.2 3.5-4.4 3.5-2.5 0-4.5-2-4.5-4.5s2-4.5 4.5-4.5c2.1 0 3.9 1.5 4.4 3.5H11zM43.9 42.1H28.8v-4.6h-2v5.6c0 .5.4 1 1 1h15.1V48c0 .6.4 1 1 1 .6 0 1-.4 1-1v-4.8C44.9 42.6 44.5 42.1 43.9 42.1zM6.3 29.4v4.9h-4c-.6 0-1 .4-1 1V48c0 .6.4 1 1 1 .6 0 1-.4 1-1V36.3h4c.6 0 1-.4 1-1v-4.9H11v-2H7.3C6.8 28.4 6.3 28.9 6.3 29.4zM14 35.5h22c.6 0 1-.4 1-1V16.8c0-.6-.4-1-1-1H14c-.6 0-1 .4-1 1v17.7C13 35.1 13.4 35.5 14 35.5zM24 25.3c0-.6.4-1 1-1s1 .4 1 1V28c0 .6-.4 1-1 1s-1-.4-1-1V25.3zM45.2 18.6V2c0-.6-.4-1-1-1-.5 0-1 .4-1 1v15.6H39v2h5.2C44.7 19.6 45.2 19.1 45.2 18.6z"/></svg>