<svg xmlns="http://www.w3.org/2000/svg" viewBox="0 0 64 64"><path fill="#318fb5" d="M36.1052,18.0681a8.56,8.56,0,1,0-8.21,0,9.2306,9.2306,0,0,0-5.135,7.49l-.3955,4.3506A1,1,0,0,0,23.36,31H40.64a1,1,0,0,0,.9961-1.0908L41.24,25.5586A9.2306,9.2306,0,0,0,36.1052,18.0681Z"/><path fill="#b0cac7" d="M15.7454,49.0681a8.56,8.56,0,1,0-8.2109,0,9.2309,9.2309,0,0,0-5.1351,7.49l-.3955,4.3506A1,1,0,0,0,3,62H20.28a1,1,0,0,0,.9961-1.0908l-.3955-4.3506A9.2307,9.2307,0,0,0,15.7454,49.0681Z"/><path fill="#f7d6bf" d="M61.6006,56.5586a9.2309,9.2309,0,0,0-5.1351-7.49,8.56,8.56,0,1,0-8.2109,0,9.2307,9.2307,0,0,0-5.1355,7.49l-.3955,4.3506A1,1,0,0,0,43.72,62H61a1,1,0,0,0,.9961-1.0908Z"/><path fill="#096293" d="M23.36 31H40.64a1 1 0 0 0 .9961-1.0908L41.24 25.5586a9.2306 9.2306 0 0 0-5.135-7.49 8.56 8.56 0 1 0-8.21 0 9.2306 9.2306 0 0 0-5.135 7.49l-.3955 4.3506A1 1 0 0 0 23.36 31zm2.08-20.44A6.56 6.56 0 1 1 32 17.12 6.5667 6.5667 0 0 1 25.44 10.56zM24.752 25.74a7.2778 7.2778 0 0 1 14.496 0L39.5449 29h-15.09zM15.7454 49.0681a8.56 8.56 0 1 0-8.2109 0 9.2309 9.2309 0 0 0-5.1351 7.49l-.3955 4.3506A1 1 0 0 0 3 62H20.28a1 1 0 0 0 .9961-1.0908l-.3955-4.3506A9.2307 9.2307 0 0 0 15.7454 49.0681zM5.08 41.56a6.56 6.56 0 1 1 6.56 6.56A6.5667 6.5667 0 0 1 5.08 41.56zM4.0947 60l.2969-3.26a7.2784 7.2784 0 0 1 14.4971 0L19.1855 60zM61.6006 56.5586a9.2309 9.2309 0 0 0-5.1351-7.49 8.56 8.56 0 1 0-8.2109 0 9.2307 9.2307 0 0 0-5.1355 7.49l-.3955 4.3506A1 1 0 0 0 43.72 62H61a1 1 0 0 0 .9961-1.0908zM45.8 41.56A6.56 6.56 0 1 1 52.36 48.12 6.5676 6.5676 0 0 1 45.8 41.56zM44.8145 60l.2968-3.26a7.2784 7.2784 0 0 1 14.4971 0L59.9053 60zM33 43.511V35a1 1 0 0 0-2 0v8.511l-8.6143 6.7a1 1 0 1 0 1.2286 1.5782L32 45.2666l8.3857 6.5225a1 1 0 1 0 1.2286-1.5782z"/></svg>