<svg xmlns="http://www.w3.org/2000/svg" viewBox="0 0 64 64"><g data-name="26 Web hosting"><rect width="18" height="6" x="6" y="11" fill="#f5f5f5" rx="2" ry="2"/><path fill="#46464e" d="M39,21a3.0033,3.0033,0,0,0,3-3V10a3.0033,3.0033,0,0,0-3-3H5a3.0033,3.0033,0,0,0-3,3v8a3.0033,3.0033,0,0,0,3,3H21v4H5a3.0033,3.0033,0,0,0-3,3v8a3.0033,3.0033,0,0,0,3,3H21v4H5a3.0033,3.0033,0,0,0-3,3v8a3.0033,3.0033,0,0,0,3,3H39a3.0033,3.0033,0,0,0,3-3V46a3.0033,3.0033,0,0,0-3-3H23V39H39a3.0033,3.0033,0,0,0,3-3V28a3.0033,3.0033,0,0,0-3-3H23V21Z"/><rect width="18" height="6" x="6" y="11" fill="#eee" rx="2" ry="2"/><circle cx="35" cy="14" r="3" fill="#ff3c38"/><circle cx="28" cy="14" r="3" fill="#3abeff"/><rect width="18" height="6" x="6" y="29" fill="#eee" rx="2" ry="2"/><circle cx="35" cy="32" r="3" fill="#ff3c38"/><circle cx="28" cy="32" r="3" fill="#3abeff"/><rect width="18" height="6" x="6" y="47" fill="#eee" rx="2" ry="2"/><circle cx="35" cy="50" r="3" fill="#ff3c38"/><circle cx="28" cy="50" r="3" fill="#3abeff"/><path d="M22 17H8a2.0023 2.0023 0 0 1-2-2V13a2.0023 2.0023 0 0 1 2-2H22a2.0023 2.0023 0 0 1 2 2v2A2.0023 2.0023 0 0 1 22 17zM8 13v2H22V13zM35 17a3 3 0 1 1 3-3A3.0033 3.0033 0 0 1 35 17zm0-4a1 1 0 1 0 1 1A1.001 1.001 0 0 0 35 13zM28 17a3 3 0 1 1 3-3A3.0033 3.0033 0 0 1 28 17zm0-4a1 1 0 1 0 1 1A1.001 1.001 0 0 0 28 13z"/><rect width="18" height="6" x="6" y="29" fill="#f5f5f5" rx="2" ry="2"/><path d="M22 34.9983H8a2.0023 2.0023 0 0 1-2-2v-2a2.0023 2.0023 0 0 1 2-2H22a2.0023 2.0023 0 0 1 2 2v2A2.0023 2.0023 0 0 1 22 34.9983zm-14-4v2H22v-2zM35 34.9983a3 3 0 1 1 3-3A3.0033 3.0033 0 0 1 35 34.9983zm0-4a1 1 0 1 0 1 1A1.001 1.001 0 0 0 35 30.9983zM28 34.9983a3 3 0 1 1 3-3A3.0033 3.0033 0 0 1 28 34.9983zm0-4a1 1 0 1 0 1 1A1.001 1.001 0 0 0 28 30.9983z"/><rect width="18" height="6" x="6" y="47" fill="#f5f5f5" rx="2" ry="2"/><path d="M39,21a3.0033,3.0033,0,0,0,3-3V10a3.0033,3.0033,0,0,0-3-3H5a3.0033,3.0033,0,0,0-3,3v8a3.0033,3.0033,0,0,0,3,3H21v3.9984H5a3.0033,3.0033,0,0,0-3,3v8a3.0033,3.0033,0,0,0,3,3H21V43H5a3.0033,3.0033,0,0,0-3,3v8a3.0033,3.0033,0,0,0,3,3H39a3.0033,3.0033,0,0,0,3-3V46a3.0033,3.0033,0,0,0-3-3H23V38.9984H39a3.0033,3.0033,0,0,0,3-3v-8a3.0033,3.0033,0,0,0-3-3H23V21Zm1,25v8a1.001,1.001,0,0,1-1,1H5a1.001,1.001,0,0,1-1-1V46a1.001,1.001,0,0,1,1-1H39A1.001,1.001,0,0,1,40,46Zm0-18.0016v8a1.001,1.001,0,0,1-1,1H5a1.001,1.001,0,0,1-1-1v-8a1.001,1.001,0,0,1,1-1H21.6948a.7869.7869,0,0,0,.61,0H39A1.001,1.001,0,0,1,40,27.9984ZM4,18V10A1.001,1.001,0,0,1,5,9H39a1.001,1.001,0,0,1,1,1v8a1.001,1.001,0,0,1-1,1H5A1.001,1.001,0,0,1,4,18Z"/><path d="M22 53H8a2.0023 2.0023 0 0 1-2-2V49a2.0023 2.0023 0 0 1 2-2H22a2.0023 2.0023 0 0 1 2 2v2A2.0023 2.0023 0 0 1 22 53zM8 49v2H22V49zM35 53a3 3 0 1 1 3-3A3.0033 3.0033 0 0 1 35 53zm0-4a1 1 0 1 0 1 1A1.001 1.001 0 0 0 35 49zM28 53a3 3 0 1 1 3-3A3.0033 3.0033 0 0 1 28 53zm0-4a1 1 0 1 0 1 1A1.001 1.001 0 0 0 28 49z"/><path fill="#3abeff" d="M62,32A12.9984,12.9984,0,1,1,51.5941,19.2625,13.1387,13.1387,0,0,1,62,32Z"/><path d="M58.8046,40.5243A12.991,12.991,0,1,0,42.7814,43.395C48.2511,46.4122,54.6251,44.9112,58.8046,40.5243Zm-20.7393-7.526H41.738a15.3025,15.3025,0,0,0,1.3391,4.7038,22.74,22.74,0,0,0-2.81.9386A10.9262,10.9262,0,0,1,38.0653,32.9983Zm2.19-7.6267a22.9854,22.9854,0,0,0,2.584.8239,13.0834,13.0834,0,0,0-1.1482,4.8029h-3.626A10.9257,10.9257,0,0,1,40.2556,25.3716ZM59.964,30.9983H56.2913a15.304,15.304,0,0,0-1.34-4.7059,22.5767,22.5767,0,0,0,2.8163-.929A10.9267,10.9267,0,0,1,59.964,30.9983Zm-9.9493-8.57A21.4948,21.4948,0,0,1,51.84,24.82c-.6218.0741-1.2324.1261-1.8254.1466Zm-2,2.519c-.7272-.0388-1.4207-.1066-2.07-.1984a18.3927,18.3927,0,0,1,2.07-2.4788Zm0,2.0333v4.018H43.6871a11.2389,11.2389,0,0,1,1.1472-4.3727A25.4789,25.4789,0,0,0,48.0146,26.98Zm0,6.018v4.0052a23.449,23.449,0,0,0-2.91.2844,13.6954,13.6954,0,0,1-1.35-4.29Zm0,6.032v2.5383a21.5066,21.5066,0,0,1-1.8258-2.392C46.8107,39.1027,47.4215,39.0507,48.0146,39.03Zm2,.02c.7271.0389,1.4205.1068,2.07.1987a18.39,18.39,0,0,1-2.07,2.4782Zm0-2.0294V32.9983h4.3276a11.24,11.24,0,0,1-1.15,4.3773A25.3989,25.3989,0,0,0,50.0146,37.0206Zm0-6.0223V26.9927a23.4217,23.4217,0,0,0,2.91-.2839,13.6958,13.6958,0,0,1,1.35,4.2895Zm3.9634-6.5467a22.5159,22.5159,0,0,0-2.235-3.0969A10.968,10.968,0,0,1,56.3,23.78,20.21,20.21,0,0,1,53.9781,24.4517Zm-10.1544-.098c-.8284-.1927-1.5328-.3983-2.0853-.5828a10.9714,10.9714,0,0,1,4.3657-2.3691A19.188,19.188,0,0,0,43.8237,24.3536Zm.227,15.1906a22.5223,22.5223,0,0,0,2.2355,3.0977,10.9688,10.9688,0,0,1-4.5587-2.426A20.1715,20.1715,0,0,1,44.0507,39.5442Zm10.1542.1c.8284.1929,1.5323.3985,2.0845.5831a10.9715,10.9715,0,0,1-4.3643,2.3679A19.191,19.191,0,0,0,54.205,39.644Zm.9836-1.84a13.0832,13.0832,0,0,0,1.1494-4.8054h3.626a10.9261,10.9261,0,0,1-2.192,5.629A22.9087,22.9087,0,0,0,55.1885,37.8038Z"/></g></svg>